<svg width="278" height="75" viewBox="0 0 278 75" fill="none" xmlns="http://www.w3.org/2000/svg">
<g clip-path="url(#clip0)">
<path d="M30.8374 65.2294C10.7969 62.1722 -2.45024 48.9251 0.380344 33.0738C3.5506 14.8448 26.5349 0.239022 51.6706 0.012575C54.8408 0.012575 56.1994 -0.100628 59.03 0.352266L47.9342 25.8276C24.8366 25.8276 3.89027 29.111 3.21093 33.0738C2.53159 37.0367 19.0622 40.2069 41.7069 40.2069L30.8374 65.2294Z" fill="#0A51A1"/>
<path d="M54.954 9.63623C74.9945 12.6932 88.2417 25.9404 85.4111 41.7917C82.2411 60.0204 59.2567 74.6265 34.2341 74.8532C31.0638 74.8532 29.7052 74.8532 26.8746 74.5132L37.9705 49.038C61.0683 49.038 82.0145 45.7545 82.6939 41.7917C83.3734 37.8289 66.8422 34.6586 44.1978 34.6586L54.954 9.63623Z" fill="#33A02C"/>
<path d="M244.49 24.8085H275.74V21.7515H245.962L247.094 19.487H276.193V15.9771H248.793L249.585 14.2787H243.584L238.036 25.7143H244.037L244.49 24.8085ZM275.513 42.4714C275.174 42.4714 274.947 42.3581 274.721 42.2449C274.494 42.1317 274.381 41.5656 274.381 40.773V27.4126H239.169V30.9226H268.267V42.3582C268.267 42.9243 268.38 43.4904 268.72 44.1697C269.173 44.9623 269.852 45.4152 270.645 45.8681C271.437 46.2077 272.569 46.2077 273.476 46.2077H276.759L277.778 42.6978H275.513V42.4714ZM156.516 21.8647L153.458 14.6184H147.005L150.402 21.8647H156.516ZM146.099 45.9813H152.326L156.289 32.7342H150.062L146.099 45.9813ZM186.633 26.5069C186.633 26.5069 186.859 22.6572 182.67 22.6572H163.422C164.214 21.2986 165.121 19.8267 165.007 19.8267H186.859V16.3168H166.932L168.064 14.2787H161.724L155.27 24.9217H160.365L159.686 31.4887H158.101V34.8854H159.459L158.441 45.8681H186.519V34.8854H187.878V31.4887H186.407V26.5069H186.633ZM170.216 42.4714H164.781L165.46 34.8854H170.102V42.4714H170.216ZM170.216 27.9788V31.6019H165.8L166.366 26.1672H180.406V31.6019H176.216V28.092H170.216V27.9788ZM180.406 42.4714H176.216V34.8854H180.406V42.4714ZM156.176 30.9226L153.006 23.6763H146.552L149.836 30.9226H156.176ZM120.171 26.7333H135.909V23.2234H120.171V14.2787H113.151V42.4714H100.923V45.8681H140.551V42.4714H120.171V26.7333ZM229.544 17.7887H229.432H229.318C225.695 17.7887 217.543 17.7887 217.543 17.7887V14.1655H210.523V17.7887H195.578V37.8292H210.523V41.9052C210.523 44.1697 212.334 45.8681 214.486 45.8681H230.677L231.583 42.4714H218.788C218.109 42.4714 217.43 41.9052 217.43 41.1127V37.8292H233.054V21.6382C233.054 19.6002 231.469 17.9019 229.544 17.7887ZM201.126 34.4325V29.5639H210.41V34.4325H201.126ZM201.126 25.9407V21.2986H210.41V25.9407H201.126ZM217.43 21.2986H227.393V25.9407H217.43V21.2986ZM227.393 34.4325H217.43V29.5639H227.393V34.4325Z" fill="black"/>
<path d="M118.133 55.1522H113.717C113.717 54.9258 113.717 51.1894 113.717 51.1894H110.999V60.4737H113.717C113.717 60.4737 113.717 57.1903 113.717 56.9637H118.133C118.133 57.1903 118.133 60.4737 118.133 60.4737H120.85V51.1894H118.133C118.133 51.1894 118.133 54.8126 118.133 55.1522ZM168.97 55.1522H164.554C164.554 54.9258 164.554 51.1894 164.554 51.1894H161.837V60.4737H164.554C164.554 60.4737 164.554 57.1903 164.554 56.9637H168.97C168.97 57.1903 168.97 60.4737 168.97 60.4737H171.687V51.1894H168.97C168.97 51.1894 168.97 54.8126 168.97 55.1522ZM186.519 60.4737H189.351V51.1894H186.519V60.4737ZM261.474 60.4737H264.304V51.1894H261.474V60.4737ZM198.068 60.4737H206.221V58.662C206.221 58.662 201.239 58.662 200.899 58.662V56.8503C201.239 56.8503 206.221 56.8503 206.221 56.8503V55.039C206.221 55.039 201.239 55.039 200.899 55.039V53.001C201.239 53.001 206.221 53.001 206.221 53.001V51.1894H198.068V60.4737ZM217.09 60.4737H225.242V58.662C225.242 58.662 220.261 58.662 219.921 58.662V56.8503C220.261 56.8503 225.242 56.8503 225.242 56.8503V55.039C225.242 55.039 220.261 55.039 219.921 55.039V53.001C220.261 53.001 225.242 53.001 225.242 53.001V51.1894H217.09V60.4737ZM211.089 51.1894H208.259V60.4737H215.731V58.662C215.731 58.662 211.429 58.662 211.089 58.662C211.089 58.4359 211.089 51.1894 211.089 51.1894ZM239.168 53.001C239.168 53.001 242.112 53.001 242.452 53.001C242.452 53.2274 242.452 60.4737 242.452 60.4737H245.283C245.283 60.4737 245.283 53.3407 245.283 53.001C245.622 53.001 248.566 53.001 248.566 53.001V51.1894H239.168V53.001ZM259.096 53.7935C259.096 52.0952 257.511 51.1894 254.567 51.1894H250.604V60.4737H253.435C253.435 60.4737 253.435 57.3037 253.435 56.5109C254.001 57.1903 256.718 60.4737 256.718 60.4737H260.115C260.115 60.4737 256.605 56.5109 256.266 56.2842C257.964 55.9448 259.096 55.039 259.096 53.7935ZM253.661 55.039C253.661 55.039 253.548 55.039 253.435 55.039V52.8877C253.548 52.8877 253.661 52.8877 253.661 52.8877C255.359 52.8877 256.266 53.2274 256.266 53.9068C256.266 54.6993 255.359 55.039 253.661 55.039ZM106.131 55.039C104.546 54.5861 103.867 54.3597 103.867 53.6803C103.867 53.2275 104.433 52.8877 105.452 52.8877H108.735V51.1894H105.452C102.734 51.1894 100.923 52.2084 100.923 53.7935C100.923 55.039 102.055 55.7181 103.867 56.3976L104.772 56.7376C105.904 57.1903 106.471 57.3037 106.471 57.8698C106.471 58.4359 105.792 58.8887 104.659 58.8887H100.923V60.7003H104.886C107.603 60.7003 109.414 59.5681 109.414 57.8698C109.301 56.6242 108.396 55.8315 106.131 55.039ZM126.738 51.1894L122.548 60.4737H125.266C125.266 60.4737 126.398 57.9826 126.511 57.7564H130.474C130.587 57.9826 131.719 60.4737 131.719 60.4737H134.437L130.248 51.1894H126.738ZM127.304 55.9448C127.417 55.6053 128.209 54.02 128.436 53.4539C128.663 54.02 129.455 55.6053 129.568 55.9448H127.304ZM177.462 51.1894L173.273 60.4737H175.99C175.99 60.4737 177.122 57.9826 177.236 57.7564H181.198C181.312 57.9826 182.444 60.4737 182.444 60.4737H185.161L180.972 51.1894H177.462ZM178.141 55.9448C178.254 55.6053 179.047 54.02 179.273 53.4539C179.5 54.02 180.292 55.6053 180.406 55.9448H178.141ZM143.948 57.1903C143.382 56.5109 138.853 51.1894 138.853 51.1894H135.909V60.4737H138.626C138.626 60.4737 138.626 55.3787 138.626 54.5861C139.192 55.2655 143.721 60.587 143.721 60.587H146.665V51.1894H143.948C143.948 51.1894 143.948 56.3976 143.948 57.1903ZM159.686 55.3787H156.968C156.968 55.3787 156.968 58.3226 156.968 59.002C156.516 59.002 155.836 59.002 155.27 58.8887C154.477 58.7753 153.798 58.662 153.232 58.4359C152.553 58.2092 151.987 57.8698 151.534 57.4164C151.081 56.9637 150.854 56.5109 150.854 55.8315C150.854 55.3787 151.081 54.9258 151.421 54.4729C151.873 54.02 152.439 53.6803 153.119 53.4539C153.685 53.2274 154.364 53.1142 155.157 53.001C155.949 52.8878 156.742 52.8877 157.761 52.8877H159.119V51.0762H157.648C156.629 51.0762 155.723 51.1894 154.591 51.3026C153.572 51.4158 152.666 51.6423 151.987 51.8687C150.854 52.3216 149.948 52.7745 149.269 53.4539C148.59 54.1332 148.25 54.9258 148.25 55.8315C148.25 56.5109 148.477 57.1903 148.816 57.7564C149.156 58.3226 149.609 58.7753 150.288 59.1148C151.194 59.6809 152.326 60.1342 153.572 60.3603C154.817 60.587 156.176 60.7003 157.761 60.7003H158.78H159.346H159.912V60.247V55.3787H159.686ZM236.451 58.8887C235.546 58.8887 234.527 58.7753 233.734 58.7753C232.715 58.662 232.036 58.4359 231.469 58.3226C230.564 57.9826 229.998 57.6431 229.658 57.3037C229.318 56.9637 229.205 56.6242 229.205 56.0581C229.205 55.6053 229.432 55.1522 229.771 54.8126C230.111 54.4729 230.677 54.1332 231.469 53.7935C231.922 53.5671 232.715 53.4538 233.621 53.3406C234.413 53.2274 235.319 53.1142 236.225 53.1142H237.131V51.3026H235.998C234.413 51.3026 232.828 51.4158 231.583 51.7555C230.224 52.0952 229.205 52.4349 228.412 53.001C227.846 53.3407 227.393 53.7935 227.054 54.3597C226.714 54.9258 226.488 55.4919 226.488 56.0581C226.488 56.7376 226.601 57.1903 227.054 57.7564C227.393 58.3226 227.846 58.7753 228.526 59.1148C229.318 59.6809 230.451 60.0209 231.696 60.3603C232.941 60.587 234.527 60.8137 236.225 60.8137H237.244V59.002H236.338H236.451V58.8887ZM275.513 58.8887H275.287C274.381 58.8887 273.362 58.7753 272.569 58.7753C271.551 58.662 270.871 58.4359 270.305 58.3226C269.399 57.9826 268.833 57.6431 268.493 57.3037C268.154 56.9637 268.041 56.6242 268.041 56.0581C268.041 55.6053 268.267 55.1522 268.607 54.8126C268.946 54.4729 269.512 54.1332 270.305 53.7935C270.871 53.5671 271.551 53.4538 272.456 53.3406C273.249 53.2274 274.268 53.1142 275.061 53.1142H275.966V51.3026H274.834C273.249 51.3026 271.664 51.4158 270.418 51.7555C269.059 52.0952 268.041 52.4349 267.248 53.001C266.682 53.3407 266.229 53.7935 265.889 54.3597C265.549 54.9258 265.323 55.4919 265.323 56.0581C265.323 56.7376 265.437 57.1903 265.889 57.7564C266.229 58.3226 266.682 58.7753 267.361 59.1148C268.154 59.6809 269.286 60.0209 270.532 60.3603C271.777 60.587 273.362 60.8137 275.061 60.8137H276.079V59.002L275.513 58.8887Z" fill="black"/>
</g>
<defs>
<clipPath id="clip0">
<rect width="277.778" height="75" fill="white"/>
</clipPath>
</defs>
</svg>
